{
    "accessors" : [
        {
            "bufferView" : 0, 
            "componentType" : 5121, 
            "count" : 6, 
            "max" : [
                3
            ], 
            "min" : [
                0
            ], 
            "type" : "SCALAR"
        }, 
        {
            "bufferView" : 1, 
            "componentType" : 5126, 
            "count" : 4, 
            "max" : [
                250.0, 
                1.530808425441628e-14, 
                250.0
            ], 
            "min" : [
                -250.0, 
                -1.530808425441628e-14, 
                -250.0
            ], 
            "type" : "VEC3"
        }, 
        {
            "bufferView" : 2, 
            "componentType" : 5126, 
            "count" : 4, 
            "max" : [
                0.0, 
                1.0, 
                -0.0
            ], 
            "min" : [
                0.0, 
                0.999969482421875, 
                -0.0
            ], 
            "type" : "VEC3"
        }, 
        {
            "bufferView" : 3, 
            "componentType" : 5126, 
            "count" : 4, 
            "max" : [
                1.0, 
                1.0
            ], 
            "min" : [
                0.0, 
                0.0
            ], 
            "type" : "VEC2"
        }, 
        {
            "bufferView" : 4, 
            "componentType" : 5126, 
            "count" : 4, 
            "max" : [
                0.96337890625, 
                0.96142578125
            ], 
            "min" : [
                0.04241943359375, 
                0.032318115234375
            ], 
            "type" : "VEC2"
        }, 
        {
            "bufferView" : 5, 
            "componentType" : 5121, 
            "count" : 216, 
            "max" : [
                48
            ], 
            "min" : [
                0
            ], 
            "type" : "SCALAR"
        }, 
        {
            "bufferView" : 6, 
            "componentType" : 5126, 
            "count" : 49, 
            "max" : [
                250.0, 
                1.530808425441628e-14, 
                250.0
            ], 
            "min" : [
                -250.0, 
                -1.530808425441628e-14, 
                -250.0
            ], 
            "type" : "VEC3"
        }, 
        {
            "bufferView" : 7, 
            "componentType" : 5126, 
            "count" : 49, 
            "max" : [
                0.0, 
                1.0, 
                -0.0
            ], 
            "min" : [
                0.0, 
                0.999969482421875, 
                -0.0
            ], 
            "type" : "VEC3"
        }, 
        {
            "bufferView" : 8, 
            "componentType" : 5126, 
            "count" : 49, 
            "max" : [
                1.0, 
                1.0
            ], 
            "min" : [
                0.0, 
                0.0
            ], 
            "type" : "VEC2"
        }, 
        {
            "bufferView" : 9, 
            "componentType" : 5126, 
            "count" : 49, 
            "max" : [
                0.96337890625, 
                0.96142578125
            ], 
            "min" : [
                0.04241943359375, 
                0.032318115234375
            ], 
            "type" : "VEC2"
        }, 
        {
            "bufferView" : 10, 
            "componentType" : 5121, 
            "count" : 54, 
            "max" : [
                15
            ], 
            "min" : [
                0
            ], 
            "type" : "SCALAR"
        }, 
        {
            "bufferView" : 11, 
            "componentType" : 5126, 
            "count" : 16, 
            "max" : [
                250.0, 
                1.530808425441628e-14, 
                250.0
            ], 
            "min" : [
                -250.0, 
                -1.530808425441628e-14, 
                -250.0
            ], 
            "type" : "VEC3"
        }, 
        {
            "bufferView" : 12, 
            "componentType" : 5126, 
            "count" : 16, 
            "max" : [
                0.0, 
                1.0, 
                -0.0
            ], 
            "min" : [
                0.0, 
                1.0, 
                -0.0
            ], 
            "type" : "VEC3"
        }, 
        {
            "bufferView" : 13, 
            "componentType" : 5126, 
            "count" : 16, 
            "max" : [
                1.0, 
                1.0
            ], 
            "min" : [
                0.0, 
                0.0
            ], 
            "type" : "VEC2"
        }, 
        {
            "bufferView" : 14, 
            "componentType" : 5126, 
            "count" : 16, 
            "max" : [
                0.96337890625, 
                0.96142578125
            ], 
            "min" : [
                0.04241943359375, 
                0.032318115234375
            ], 
            "type" : "VEC2"
        }
    ], 
    "asset" : {
        "generator" : "Khronos Blender glTF 2.0 exporter", 
        "version" : "2.0"
    }, 
    "bufferViews" : [
        {
            "buffer" : 0, 
            "byteLength" : 6, 
            "byteOffset" : 0, 
            "target" : 34963
        }, 
        {
            "buffer" : 0, 
            "byteLength" : 48, 
            "byteOffset" : 8, 
            "target" : 34962
        }, 
        {
            "buffer" : 0, 
            "byteLength" : 48, 
            "byteOffset" : 56, 
            "target" : 34962
        }, 
        {
            "buffer" : 0, 
            "byteLength" : 32, 
            "byteOffset" : 104, 
            "target" : 34962
        }, 
        {
            "buffer" : 0, 
            "byteLength" : 32, 
            "byteOffset" : 136, 
            "target" : 34962
        }, 
        {
            "buffer" : 0, 
            "byteLength" : 216, 
            "byteOffset" : 168, 
            "target" : 34963
        }, 
        {
            "buffer" : 0, 
            "byteLength" : 588, 
            "byteOffset" : 384, 
            "target" : 34962
        }, 
        {
            "buffer" : 0, 
            "byteLength" : 588, 
            "byteOffset" : 972, 
            "target" : 34962
        }, 
        {
            "buffer" : 0, 
            "byteLength" : 392, 
            "byteOffset" : 1560, 
            "target" : 34962
        }, 
        {
            "buffer" : 0, 
            "byteLength" : 392, 
            "byteOffset" : 1952, 
            "target" : 34962
        }, 
        {
            "buffer" : 0, 
            "byteLength" : 54, 
            "byteOffset" : 2344, 
            "target" : 34963
        }, 
        {
            "buffer" : 0, 
            "byteLength" : 192, 
            "byteOffset" : 2400, 
            "target" : 34962
        }, 
        {
            "buffer" : 0, 
            "byteLength" : 192, 
            "byteOffset" : 2592, 
            "target" : 34962
        }, 
        {
            "buffer" : 0, 
            "byteLength" : 128, 
            "byteOffset" : 2784, 
            "target" : 34962
        }, 
        {
            "buffer" : 0, 
            "byteLength" : 128, 
            "byteOffset" : 2912, 
            "target" : 34962
        }
    ], 
    "buffers" : [
        {
            "byteLength" : 3040, 
            "uri" : "model.bin"
        }
    ], 
    "images" : [
        {
            "uri" : "pavement2_D.png"
        }, 
        {
            "uri" : "pavement2_SRM.png"
        }, 
        {
            "uri" : "pavement2_N.png"
        }
    ], 
    "materials" : [
        {
            "name" : "pavement2", 
            "normalTexture" : {
                "index" : 2
            }, 
            "pbrMetallicRoughness" : {
                "baseColorTexture" : {
                    "index" : 0
                }, 
                "metallicRoughnessTexture" : {
                    "index" : 1
                }
            }
        }
    ], 
    "meshes" : [
        {
            "name" : "Floor01.002", 
            "primitives" : [
                {
                    "attributes" : {
                        "NORMAL" : 2, 
                        "POSITION" : 1, 
                        "TEXCOORD_0" : 3, 
                        "TEXCOORD_1" : 4
                    }, 
                    "indices" : 0, 
                    "material" : 0
                }
            ]
        }, 
        {
            "name" : "Floor01", 
            "primitives" : [
                {
                    "attributes" : {
                        "NORMAL" : 7, 
                        "POSITION" : 6, 
                        "TEXCOORD_0" : 8, 
                        "TEXCOORD_1" : 9
                    }, 
                    "indices" : 5, 
                    "material" : 0
                }
            ]
        }, 
        {
            "name" : "Floor01.001", 
            "primitives" : [
                {
                    "attributes" : {
                        "NORMAL" : 12, 
                        "POSITION" : 11, 
                        "TEXCOORD_0" : 13, 
                        "TEXCOORD_1" : 14
                    }, 
                    "indices" : 10, 
                    "material" : 0
                }
            ]
        }
    ], 
    "nodes" : [
        {
            "children" : [
                1, 
                2, 
                3
            ], 
            "name" : "Floor01", 
            "scale" : [
                0.009999999776482582, 
                0.009999999776482582, 
                0.009999999776482582
            ]
        }, 
        {
            "mesh" : 1, 
            "name" : "Floor01_LOD0"
        }, 
        {
            "mesh" : 2, 
            "name" : "Floor01_LOD1"
        }, 
        {
            "mesh" : 0, 
            "name" : "Floor01_LOD2"
        }
    ], 
    "samplers" : [
        {}
    ], 
    "scene" : 0, 
    "scenes" : [
        {
            "name" : "Scene", 
            "nodes" : [
                0
            ]
        }
    ], 
    "textures" : [
        {
            "sampler" : 0, 
            "source" : 0
        }, 
        {
            "sampler" : 0, 
            "source" : 1
        }, 
        {
            "sampler" : 0, 
            "source" : 2
        }
    ]
}
