{
    "accessors" : [
        {
            "bufferView" : 0, 
            "componentType" : 5121, 
            "count" : 6, 
            "max" : [
                3
            ], 
            "min" : [
                0
            ], 
            "type" : "SCALAR"
        }, 
        {
            "bufferView" : 1, 
            "componentType" : 5126, 
            "count" : 4, 
            "max" : [
                250.0, 
                1.530808425441628e-14, 
                250.0
            ], 
            "min" : [
                -250.0, 
                -1.530808425441628e-14, 
                -250.0
            ], 
            "type" : "VEC3"
        }, 
        {
            "bufferView" : 2, 
            "componentType" : 5126, 
            "count" : 4, 
            "max" : [
                0.0, 
                1.0, 
                -0.0
            ], 
            "min" : [
                0.0, 
                0.999969482421875, 
                -0.0
            ], 
            "type" : "VEC3"
        }, 
        {
            "bufferView" : 3, 
            "componentType" : 5126, 
            "count" : 4, 
            "max" : [
                -0.9999922513961792, 
                -0.003931968938559294, 
                1.546148632769473e-05, 
                1.0
            ], 
            "min" : [
                -0.999992311000824, 
                -0.003932347055524588, 
                1.5461484508705325e-05, 
                1.0
            ], 
            "type" : "VEC4"
        }, 
        {
            "bufferView" : 4, 
            "componentType" : 5126, 
            "count" : 4, 
            "max" : [
                1.0, 
                1.0
            ], 
            "min" : [
                0.0, 
                0.0
            ], 
            "type" : "VEC2"
        }, 
        {
            "bufferView" : 5, 
            "componentType" : 5126, 
            "count" : 4, 
            "max" : [
                0.96337890625, 
                0.96142578125
            ], 
            "min" : [
                0.04241943359375, 
                0.032318115234375
            ], 
            "type" : "VEC2"
        }, 
        {
            "bufferView" : 6, 
            "componentType" : 5121, 
            "count" : 216, 
            "max" : [
                48
            ], 
            "min" : [
                0
            ], 
            "type" : "SCALAR"
        }, 
        {
            "bufferView" : 7, 
            "componentType" : 5126, 
            "count" : 49, 
            "max" : [
                250.0, 
                1.530808425441628e-14, 
                250.0
            ], 
            "min" : [
                -250.0, 
                -1.530808425441628e-14, 
                -250.0
            ], 
            "type" : "VEC3"
        }, 
        {
            "bufferView" : 8, 
            "componentType" : 5126, 
            "count" : 49, 
            "max" : [
                0.0, 
                1.0, 
                -0.0
            ], 
            "min" : [
                0.0, 
                0.999969482421875, 
                -0.0
            ], 
            "type" : "VEC3"
        }, 
        {
            "bufferView" : 9, 
            "componentType" : 5126, 
            "count" : 49, 
            "max" : [
                -0.9999922513961792, 
                -0.00389704667031765, 
                1.5564508430543356e-05, 
                1.0
            ], 
            "min" : [
                -0.9999924302101135, 
                -0.003932347055524588, 
                1.5196057574939914e-05, 
                1.0
            ], 
            "type" : "VEC4"
        }, 
        {
            "bufferView" : 10, 
            "componentType" : 5126, 
            "count" : 49, 
            "max" : [
                1.0, 
                1.0
            ], 
            "min" : [
                0.0, 
                0.0
            ], 
            "type" : "VEC2"
        }, 
        {
            "bufferView" : 11, 
            "componentType" : 5126, 
            "count" : 49, 
            "max" : [
                0.96337890625, 
                0.96142578125
            ], 
            "min" : [
                0.04241943359375, 
                0.032318115234375
            ], 
            "type" : "VEC2"
        }, 
        {
            "bufferView" : 12, 
            "componentType" : 5121, 
            "count" : 54, 
            "max" : [
                15
            ], 
            "min" : [
                0
            ], 
            "type" : "SCALAR"
        }, 
        {
            "bufferView" : 13, 
            "componentType" : 5126, 
            "count" : 16, 
            "max" : [
                250.0, 
                1.530808425441628e-14, 
                250.0
            ], 
            "min" : [
                -250.0, 
                -1.530808425441628e-14, 
                -250.0
            ], 
            "type" : "VEC3"
        }, 
        {
            "bufferView" : 14, 
            "componentType" : 5126, 
            "count" : 16, 
            "max" : [
                0.0, 
                1.0, 
                -0.0
            ], 
            "min" : [
                0.0, 
                1.0, 
                -0.0
            ], 
            "type" : "VEC3"
        }, 
        {
            "bufferView" : 15, 
            "componentType" : 5126, 
            "count" : 16, 
            "max" : [
                -0.9999922513961792, 
                -0.0038978876546025276, 
                1.5518704458372667e-05, 
                1.0
            ], 
            "min" : [
                -0.9999924302101135, 
                -0.003932347055524588, 
                1.528188840893563e-05, 
                1.0
            ], 
            "type" : "VEC4"
        }, 
        {
            "bufferView" : 16, 
            "componentType" : 5126, 
            "count" : 16, 
            "max" : [
                1.0, 
                1.0
            ], 
            "min" : [
                0.0, 
                0.0
            ], 
            "type" : "VEC2"
        }, 
        {
            "bufferView" : 17, 
            "componentType" : 5126, 
            "count" : 16, 
            "max" : [
                0.96337890625, 
                0.96142578125
            ], 
            "min" : [
                0.04241943359375, 
                0.032318115234375
            ], 
            "type" : "VEC2"
        }
    ], 
    "asset" : {
        "generator" : "Khronos Blender glTF 2.0 exporter", 
        "version" : "2.0"
    }, 
    "bufferViews" : [
        {
            "buffer" : 0, 
            "byteLength" : 6, 
            "byteOffset" : 0, 
            "target" : 34963
        }, 
        {
            "buffer" : 0, 
            "byteLength" : 48, 
            "byteOffset" : 8, 
            "target" : 34962
        }, 
        {
            "buffer" : 0, 
            "byteLength" : 48, 
            "byteOffset" : 56, 
            "target" : 34962
        }, 
        {
            "buffer" : 0, 
            "byteLength" : 64, 
            "byteOffset" : 104, 
            "target" : 34962
        }, 
        {
            "buffer" : 0, 
            "byteLength" : 32, 
            "byteOffset" : 168, 
            "target" : 34962
        }, 
        {
            "buffer" : 0, 
            "byteLength" : 32, 
            "byteOffset" : 200, 
            "target" : 34962
        }, 
        {
            "buffer" : 0, 
            "byteLength" : 216, 
            "byteOffset" : 232, 
            "target" : 34963
        }, 
        {
            "buffer" : 0, 
            "byteLength" : 588, 
            "byteOffset" : 448, 
            "target" : 34962
        }, 
        {
            "buffer" : 0, 
            "byteLength" : 588, 
            "byteOffset" : 1036, 
            "target" : 34962
        }, 
        {
            "buffer" : 0, 
            "byteLength" : 784, 
            "byteOffset" : 1624, 
            "target" : 34962
        }, 
        {
            "buffer" : 0, 
            "byteLength" : 392, 
            "byteOffset" : 2408, 
            "target" : 34962
        }, 
        {
            "buffer" : 0, 
            "byteLength" : 392, 
            "byteOffset" : 2800, 
            "target" : 34962
        }, 
        {
            "buffer" : 0, 
            "byteLength" : 54, 
            "byteOffset" : 3192, 
            "target" : 34963
        }, 
        {
            "buffer" : 0, 
            "byteLength" : 192, 
            "byteOffset" : 3248, 
            "target" : 34962
        }, 
        {
            "buffer" : 0, 
            "byteLength" : 192, 
            "byteOffset" : 3440, 
            "target" : 34962
        }, 
        {
            "buffer" : 0, 
            "byteLength" : 256, 
            "byteOffset" : 3632, 
            "target" : 34962
        }, 
        {
            "buffer" : 0, 
            "byteLength" : 128, 
            "byteOffset" : 3888, 
            "target" : 34962
        }, 
        {
            "buffer" : 0, 
            "byteLength" : 128, 
            "byteOffset" : 4016, 
            "target" : 34962
        }
    ], 
    "buffers" : [
        {
            "byteLength" : 4144, 
            "uri" : "untitled.bin"
        }
    ], 
    "images" : [
        {
            "uri" : "pavement2_D.png"
        }, 
        {
            "uri" : "pavement2_SRM.png"
        }, 
        {
            "uri" : "pavement2_N.png"
        }
    ], 
    "materials" : [
        {
            "name" : "pavement2", 
            "normalTexture" : {
                "index" : 2
            }, 
            "pbrMetallicRoughness" : {
                "baseColorTexture" : {
                    "index" : 0
                }, 
                "metallicRoughnessTexture" : {
                    "index" : 1
                }
            }
        }
    ], 
    "meshes" : [
        {
            "name" : "Floor01.002", 
            "primitives" : [
                {
                    "attributes" : {
                        "NORMAL" : 2, 
                        "POSITION" : 1, 
                        "TANGENT" : 3, 
                        "TEXCOORD_0" : 4, 
                        "TEXCOORD_1" : 5
                    }, 
                    "indices" : 0, 
                    "material" : 0
                }
            ]
        }, 
        {
            "name" : "Floor01", 
            "primitives" : [
                {
                    "attributes" : {
                        "NORMAL" : 8, 
                        "POSITION" : 7, 
                        "TANGENT" : 9, 
                        "TEXCOORD_0" : 10, 
                        "TEXCOORD_1" : 11
                    }, 
                    "indices" : 6, 
                    "material" : 0
                }
            ]
        }, 
        {
            "name" : "Floor01.001", 
            "primitives" : [
                {
                    "attributes" : {
                        "NORMAL" : 14, 
                        "POSITION" : 13, 
                        "TANGENT" : 15, 
                        "TEXCOORD_0" : 16, 
                        "TEXCOORD_1" : 17
                    }, 
                    "indices" : 12, 
                    "material" : 0
                }
            ]
        }
    ], 
    "nodes" : [
        {
            "children" : [
                2, 
                4, 
                6
            ], 
            "name" : "Floor01", 
            "scale" : [
                0.009999999776482582, 
                0.009999999776482582, 
                0.009999999776482582
            ]
        }, 
        {
            "children" : [
                3, 
                5, 
                7
            ], 
            "name" : "Floor01.001", 
            "scale" : [
                0.009999999776482582, 
                0.009999999776482582, 
                0.009999999776482582
            ], 
            "translation" : [
                5.0, 
                0.0, 
                -0.0
            ]
        }, 
        {
            "mesh" : 1, 
            "name" : "Floor01_LOD0"
        }, 
        {
            "mesh" : 1, 
            "name" : "Floor01_LOD0.001", 
            "scale" : [
                0.9999998807907104, 
                1.0, 
                1.0
            ]
        }, 
        {
            "mesh" : 2, 
            "name" : "Floor01_LOD1"
        }, 
        {
            "mesh" : 2, 
            "name" : "Floor01_LOD1.001", 
            "scale" : [
                0.9999998807907104, 
                1.0, 
                1.0
            ]
        }, 
        {
            "mesh" : 0, 
            "name" : "Floor01_LOD2"
        }, 
        {
            "mesh" : 0, 
            "name" : "Floor01_LOD2.001", 
            "scale" : [
                0.9999998807907104, 
                1.0, 
                1.0
            ]
        }, 
        {
            "children" : [
                0, 
                1
            ], 
            "name" : "Root"
        }
    ], 
    "samplers" : [
        {}
    ], 
    "scene" : 0, 
    "scenes" : [
        {
            "name" : "Scene", 
            "nodes" : [
                8
            ]
        }
    ], 
    "textures" : [
        {
            "sampler" : 0, 
            "source" : 0
        }, 
        {
            "sampler" : 0, 
            "source" : 1
        }, 
        {
            "sampler" : 0, 
            "source" : 2
        }
    ]
}
