{
    "asset": {
        "generator": "FBX2glTF",
        "version": "2.0"
    },
    "scene": 0,
    "buffers": [
        {
            "byteLength": 23836,
            "uri": "buffer.bin"
        }
    ],
    "bufferViews": [
        {
            "buffer": 0,
            "byteLength": 2394,
            "byteOffset": 0,
            "target": 34963
        },
        {
            "buffer": 0,
            "byteLength": 8040,
            "byteOffset": 2396,
            "target": 34962
        },
        {
            "buffer": 0,
            "byteLength": 8040,
            "byteOffset": 10436,
            "target": 34962
        },
        {
            "buffer": 0,
            "byteLength": 5360,
            "byteOffset": 18476,
            "target": 34962
        }
    ],
    "scenes": [
        {
            "name": "Root Scene",
            "nodes": [
                0
            ]
        }
    ],
    "accessors": [
        {
            "componentType": 5123,
            "type": "SCALAR",
            "count": 1197,
            "bufferView": 0,
            "byteOffset": 0
        },
        {
            "componentType": 5126,
            "type": "VEC3",
            "count": 670,
            "bufferView": 1,
            "byteOffset": 0,
            "min": [
                -3.45694923400879,
                -0.00507628731429577,
                -6.515869140625
            ],
            "max": [
                3.45694994926453,
                10.2214202880859,
                5.81597137451172
            ]
        },
        {
            "componentType": 5126,
            "type": "VEC3",
            "count": 670,
            "bufferView": 2,
            "byteOffset": 0
        },
        {
            "componentType": 5126,
            "type": "VEC2",
            "count": 670,
            "bufferView": 3,
            "byteOffset": 0
        }
    ],
    "images": [
        {
            "name": "STL_Building_Apartment_02.png",
            "uri": "../../textures/STL_Building_Apartment_02.png"
        }
    ],
    "samplers": [
        {}
    ],
    "textures": [
        {
            "name": "Building01a_1",
            "sampler": 0,
            "source": 0
        }
    ],
    "materials": [
        {
            "name": "lambert86",
            "alphaMode": "OPAQUE",
            "pbrMetallicRoughness": {
                "baseColorTexture": {
                    "index": 0,
                    "texCoord": 0
                },
                "baseColorFactor": [
                    0.800000011920929,
                    0.800000011920929,
                    0.800000011920929,
                    1.0
                ],
                "metallicFactor": 0.100000001490116,
                "roughnessFactor": 0.400000005960464
            }
        }
    ],
    "meshes": [
        {
            "name": "apartment_large_thin_short",
            "primitives": [
                {
                    "material": 0,
                    "mode": 4,
                    "attributes": {
                        "NORMAL": 2,
                        "POSITION": 1,
                        "TEXCOORD_0": 3
                    },
                    "indices": 0
                }
            ]
        }
    ],
    "nodes": [
        {
            "name": "RootNode",
            "translation": [
                0.0,
                0.0,
                0.0
            ],
            "rotation": [
                0.0,
                0.0,
                0.0,
                1.0
            ],
            "scale": [
                1.0,
                1.0,
                1.0
            ],
            "children": [
                1
            ]
        },
        {
            "name": "apartment_large_thin_short",
            "translation": [
                0.0,
                0.0,
                0.0
            ],
            "rotation": [
                0.0,
                0.0,
                0.0,
                1.0
            ],
            "scale": [
                0.00999999977648258,
                0.00999999977648258,
                0.00999999977648258
            ],
            "mesh": 0
        }
    ]
}