{
    "asset": {
        "generator": "FBX2glTF",
        "version": "2.0"
    },
    "scene": 0,
    "buffers": [
        {
            "byteLength": 35756,
            "uri": "buffer.bin"
        }
    ],
    "bufferViews": [
        {
            "buffer": 0,
            "byteLength": 2940,
            "byteOffset": 0,
            "target": 34963
        },
        {
            "buffer": 0,
            "byteLength": 9156,
            "byteOffset": 2940,
            "target": 34962
        },
        {
            "buffer": 0,
            "byteLength": 9156,
            "byteOffset": 12096,
            "target": 34962
        },
        {
            "buffer": 0,
            "byteLength": 6104,
            "byteOffset": 21252,
            "target": 34962
        },
        {
            "buffer": 0,
            "byteLength": 276,
            "byteOffset": 27356,
            "target": 34963
        },
        {
            "buffer": 0,
            "byteLength": 684,
            "byteOffset": 27632,
            "target": 34962
        },
        {
            "buffer": 0,
            "byteLength": 684,
            "byteOffset": 28316,
            "target": 34962
        },
        {
            "buffer": 0,
            "byteLength": 456,
            "byteOffset": 29000,
            "target": 34962
        },
        {
            "buffer": 0,
            "byteLength": 276,
            "byteOffset": 29456,
            "target": 34963
        },
        {
            "buffer": 0,
            "byteLength": 684,
            "byteOffset": 29732,
            "target": 34962
        },
        {
            "buffer": 0,
            "byteLength": 684,
            "byteOffset": 30416,
            "target": 34962
        },
        {
            "buffer": 0,
            "byteLength": 456,
            "byteOffset": 31100,
            "target": 34962
        },
        {
            "buffer": 0,
            "byteLength": 276,
            "byteOffset": 31556,
            "target": 34963
        },
        {
            "buffer": 0,
            "byteLength": 684,
            "byteOffset": 31832,
            "target": 34962
        },
        {
            "buffer": 0,
            "byteLength": 684,
            "byteOffset": 32516,
            "target": 34962
        },
        {
            "buffer": 0,
            "byteLength": 456,
            "byteOffset": 33200,
            "target": 34962
        },
        {
            "buffer": 0,
            "byteLength": 276,
            "byteOffset": 33656,
            "target": 34963
        },
        {
            "buffer": 0,
            "byteLength": 684,
            "byteOffset": 33932,
            "target": 34962
        },
        {
            "buffer": 0,
            "byteLength": 684,
            "byteOffset": 34616,
            "target": 34962
        },
        {
            "buffer": 0,
            "byteLength": 456,
            "byteOffset": 35300,
            "target": 34962
        }
    ],
    "scenes": [
        {
            "name": "Root Scene",
            "nodes": [
                0
            ]
        }
    ],
    "accessors": [
        {
            "componentType": 5123,
            "type": "SCALAR",
            "count": 1470,
            "bufferView": 0,
            "byteOffset": 0
        },
        {
            "componentType": 5126,
            "type": "VEC3",
            "count": 763,
            "bufferView": 1,
            "byteOffset": 0,
            "min": [
                -1.57970118522644,
                0.254954099655151,
                -2.66183185577393
            ],
            "max": [
                1.57970118522644,
                3.79938864707947,
                2.66182851791382
            ]
        },
        {
            "componentType": 5126,
            "type": "VEC3",
            "count": 763,
            "bufferView": 2,
            "byteOffset": 0
        },
        {
            "componentType": 5126,
            "type": "VEC2",
            "count": 763,
            "bufferView": 3,
            "byteOffset": 0
        },
        {
            "componentType": 5123,
            "type": "SCALAR",
            "count": 138,
            "bufferView": 4,
            "byteOffset": 0
        },
        {
            "componentType": 5126,
            "type": "VEC3",
            "count": 57,
            "bufferView": 5,
            "byteOffset": 0,
            "min": [
                0.999307751655579,
                0.0018412247300148,
                -1.9839483499527
            ],
            "max": [
                1.22411847114563,
                0.725149750709534,
                -1.2606406211853
            ]
        },
        {
            "componentType": 5126,
            "type": "VEC3",
            "count": 57,
            "bufferView": 6,
            "byteOffset": 0
        },
        {
            "componentType": 5126,
            "type": "VEC2",
            "count": 57,
            "bufferView": 7,
            "byteOffset": 0
        },
        {
            "componentType": 5123,
            "type": "SCALAR",
            "count": 138,
            "bufferView": 8,
            "byteOffset": 0
        },
        {
            "componentType": 5126,
            "type": "VEC3",
            "count": 57,
            "bufferView": 9,
            "byteOffset": 0,
            "min": [
                0.999307751655579,
                0.00184150971472263,
                1.3725209236145
            ],
            "max": [
                1.22411847114563,
                0.725149869918823,
                2.09582901000977
            ]
        },
        {
            "componentType": 5126,
            "type": "VEC3",
            "count": 57,
            "bufferView": 10,
            "byteOffset": 0
        },
        {
            "componentType": 5126,
            "type": "VEC2",
            "count": 57,
            "bufferView": 11,
            "byteOffset": 0
        },
        {
            "componentType": 5123,
            "type": "SCALAR",
            "count": 138,
            "bufferView": 12,
            "byteOffset": 0
        },
        {
            "componentType": 5126,
            "type": "VEC3",
            "count": 57,
            "bufferView": 13,
            "byteOffset": 0,
            "min": [
                -1.22411847114563,
                0.00184150971472263,
                1.3725209236145
            ],
            "max": [
                -0.999307751655579,
                0.725149869918823,
                2.09582901000977
            ]
        },
        {
            "componentType": 5126,
            "type": "VEC3",
            "count": 57,
            "bufferView": 14,
            "byteOffset": 0
        },
        {
            "componentType": 5126,
            "type": "VEC2",
            "count": 57,
            "bufferView": 15,
            "byteOffset": 0
        },
        {
            "componentType": 5123,
            "type": "SCALAR",
            "count": 138,
            "bufferView": 16,
            "byteOffset": 0
        },
        {
            "componentType": 5126,
            "type": "VEC3",
            "count": 57,
            "bufferView": 17,
            "byteOffset": 0,
            "min": [
                -1.22411847114563,
                0.00184150971472263,
                -1.98394846916199
            ],
            "max": [
                -0.999307751655579,
                0.725149869918823,
                -1.2606406211853
            ]
        },
        {
            "componentType": 5126,
            "type": "VEC3",
            "count": 57,
            "bufferView": 18,
            "byteOffset": 0
        },
        {
            "componentType": 5126,
            "type": "VEC2",
            "count": 57,
            "bufferView": 19,
            "byteOffset": 0
        }
    ],
    "images": [
        {
            "name": "STL_Vehicle_PizzaCar",
            "uri": "../../textures/STL_Vehicle_PizzaCar.png"
        }
    ],
    "samplers": [
        {}
    ],
    "textures": [
        {
            "name": "Road_3",
            "sampler": 0,
            "source": 0
        }
    ],
    "materials": [
        {
            "name": "pizza_car_seperate",
            "alphaMode": "OPAQUE",
            "pbrMetallicRoughness": {
                "baseColorTexture": {
                    "index": 0,
                    "texCoord": 0
                },
                "baseColorFactor": [
                    0.400000005960464,
                    0.400000005960464,
                    0.400000005960464,
                    1.0
                ],
                "metallicFactor": 0.100000001490116,
                "roughnessFactor": 0.400000005960464
            }
        }
    ],
    "meshes": [
        {
            "name": "pizza_car_seperate",
            "primitives": [
                {
                    "material": 0,
                    "mode": 4,
                    "attributes": {
                        "NORMAL": 2,
                        "POSITION": 1,
                        "TEXCOORD_0": 3
                    },
                    "indices": 0
                }
            ]
        },
        {
            "name": "car_fr_wheel_mesh",
            "primitives": [
                {
                    "material": 0,
                    "mode": 4,
                    "attributes": {
                        "NORMAL": 6,
                        "POSITION": 5,
                        "TEXCOORD_0": 7
                    },
                    "indices": 4
                }
            ]
        },
        {
            "name": "car_rr_wheel_mesh",
            "primitives": [
                {
                    "material": 0,
                    "mode": 4,
                    "attributes": {
                        "NORMAL": 10,
                        "POSITION": 9,
                        "TEXCOORD_0": 11
                    },
                    "indices": 8
                }
            ]
        },
        {
            "name": "car_rl_wheel_mesh",
            "primitives": [
                {
                    "material": 0,
                    "mode": 4,
                    "attributes": {
                        "NORMAL": 14,
                        "POSITION": 13,
                        "TEXCOORD_0": 15
                    },
                    "indices": 12
                }
            ]
        },
        {
            "name": "car_fl_wheel_mesh",
            "primitives": [
                {
                    "material": 0,
                    "mode": 4,
                    "attributes": {
                        "NORMAL": 18,
                        "POSITION": 17,
                        "TEXCOORD_0": 19
                    },
                    "indices": 16
                }
            ]
        }
    ],
    "nodes": [
        {
            "name": "RootNode",
            "translation": [
                0.0,
                0.0,
                0.0
            ],
            "rotation": [
                0.0,
                0.0,
                0.0,
                1.0
            ],
            "scale": [
                1.0,
                1.0,
                1.0
            ],
            "children": [
                1
            ]
        },
        {
            "name": "pizza_car_seperate",
            "translation": [
                0.0,
                0.0,
                0.0
            ],
            "rotation": [
                0.0,
                0.0,
                0.0,
                1.0
            ],
            "scale": [
                0.00999999977648258,
                0.00999999977648258,
                0.00999999977648258
            ],
            "children": [
                2,
                3,
                4,
                5
            ],
            "mesh": 0
        },
        {
            "name": "car_fr_wheel_mesh",
            "translation": [
                0.0,
                0.0,
                0.0
            ],
            "rotation": [
                0.0,
                0.0,
                0.0,
                1.0
            ],
            "scale": [
                1.0,
                1.0,
                1.0
            ],
            "mesh": 1
        },
        {
            "name": "car_rr_wheel_mesh",
            "translation": [
                0.0,
                0.0,
                0.0
            ],
            "rotation": [
                0.0,
                0.0,
                0.0,
                1.0
            ],
            "scale": [
                1.0,
                1.0,
                1.0
            ],
            "mesh": 2
        },
        {
            "name": "car_rl_wheel_mesh",
            "translation": [
                0.0,
                0.0,
                0.0
            ],
            "rotation": [
                0.0,
                0.0,
                0.0,
                1.0
            ],
            "scale": [
                1.0,
                1.0,
                1.0
            ],
            "mesh": 3
        },
        {
            "name": "car_fl_wheel_mesh",
            "translation": [
                0.0,
                0.0,
                0.0
            ],
            "rotation": [
                0.0,
                0.0,
                0.0,
                1.0
            ],
            "scale": [
                1.0,
                1.0,
                1.0
            ],
            "mesh": 4
        }
    ]
}