{
    "asset": {
        "generator": "FBX2glTF",
        "version": "2.0"
    },
    "scene": 0,
    "buffers": [
        {
            "byteLength": 27568,
            "uri": "buffer.bin"
        }
    ],
    "bufferViews": [
        {
            "buffer": 0,
            "byteLength": 2112,
            "byteOffset": 0,
            "target": 34963
        },
        {
            "buffer": 0,
            "byteLength": 6588,
            "byteOffset": 2112,
            "target": 34962
        },
        {
            "buffer": 0,
            "byteLength": 6588,
            "byteOffset": 8700,
            "target": 34962
        },
        {
            "buffer": 0,
            "byteLength": 4392,
            "byteOffset": 15288,
            "target": 34962
        },
        {
            "buffer": 0,
            "byteLength": 276,
            "byteOffset": 19680,
            "target": 34963
        },
        {
            "buffer": 0,
            "byteLength": 636,
            "byteOffset": 19956,
            "target": 34962
        },
        {
            "buffer": 0,
            "byteLength": 636,
            "byteOffset": 20592,
            "target": 34962
        },
        {
            "buffer": 0,
            "byteLength": 424,
            "byteOffset": 21228,
            "target": 34962
        },
        {
            "buffer": 0,
            "byteLength": 276,
            "byteOffset": 21652,
            "target": 34963
        },
        {
            "buffer": 0,
            "byteLength": 636,
            "byteOffset": 21928,
            "target": 34962
        },
        {
            "buffer": 0,
            "byteLength": 636,
            "byteOffset": 22564,
            "target": 34962
        },
        {
            "buffer": 0,
            "byteLength": 424,
            "byteOffset": 23200,
            "target": 34962
        },
        {
            "buffer": 0,
            "byteLength": 276,
            "byteOffset": 23624,
            "target": 34963
        },
        {
            "buffer": 0,
            "byteLength": 636,
            "byteOffset": 23900,
            "target": 34962
        },
        {
            "buffer": 0,
            "byteLength": 636,
            "byteOffset": 24536,
            "target": 34962
        },
        {
            "buffer": 0,
            "byteLength": 424,
            "byteOffset": 25172,
            "target": 34962
        },
        {
            "buffer": 0,
            "byteLength": 276,
            "byteOffset": 25596,
            "target": 34963
        },
        {
            "buffer": 0,
            "byteLength": 636,
            "byteOffset": 25872,
            "target": 34962
        },
        {
            "buffer": 0,
            "byteLength": 636,
            "byteOffset": 26508,
            "target": 34962
        },
        {
            "buffer": 0,
            "byteLength": 424,
            "byteOffset": 27144,
            "target": 34962
        }
    ],
    "scenes": [
        {
            "name": "Root Scene",
            "nodes": [
                0
            ]
        }
    ],
    "accessors": [
        {
            "componentType": 5123,
            "type": "SCALAR",
            "count": 1056,
            "bufferView": 0,
            "byteOffset": 0
        },
        {
            "componentType": 5126,
            "type": "VEC3",
            "count": 549,
            "bufferView": 1,
            "byteOffset": 0,
            "min": [
                -1.71844673156738,
                0.429077088832855,
                -2.96869659423828
            ],
            "max": [
                1.71844673156738,
                4.3135085105896,
                2.96868896484375
            ]
        },
        {
            "componentType": 5126,
            "type": "VEC3",
            "count": 549,
            "bufferView": 2,
            "byteOffset": 0
        },
        {
            "componentType": 5126,
            "type": "VEC2",
            "count": 549,
            "bufferView": 3,
            "byteOffset": 0
        },
        {
            "componentType": 5123,
            "type": "SCALAR",
            "count": 138,
            "bufferView": 4,
            "byteOffset": 0
        },
        {
            "componentType": 5126,
            "type": "VEC3",
            "count": 53,
            "bufferView": 5,
            "byteOffset": 0,
            "min": [
                1.25382232666016,
                0.0,
                -2.32167816162109
            ],
            "max": [
                1.42874145507812,
                0.860399723052979,
                -1.46127319335938
            ]
        },
        {
            "componentType": 5126,
            "type": "VEC3",
            "count": 53,
            "bufferView": 6,
            "byteOffset": 0
        },
        {
            "componentType": 5126,
            "type": "VEC2",
            "count": 53,
            "bufferView": 7,
            "byteOffset": 0
        },
        {
            "componentType": 5123,
            "type": "SCALAR",
            "count": 138,
            "bufferView": 8,
            "byteOffset": 0
        },
        {
            "componentType": 5126,
            "type": "VEC3",
            "count": 53,
            "bufferView": 9,
            "byteOffset": 0,
            "min": [
                1.25382232666016,
                0.0,
                1.68580627441406
            ],
            "max": [
                1.42874145507812,
                0.860399723052979,
                2.54621124267578
            ]
        },
        {
            "componentType": 5126,
            "type": "VEC3",
            "count": 53,
            "bufferView": 10,
            "byteOffset": 0
        },
        {
            "componentType": 5126,
            "type": "VEC2",
            "count": 53,
            "bufferView": 11,
            "byteOffset": 0
        },
        {
            "componentType": 5123,
            "type": "SCALAR",
            "count": 138,
            "bufferView": 12,
            "byteOffset": 0
        },
        {
            "componentType": 5126,
            "type": "VEC3",
            "count": 53,
            "bufferView": 13,
            "byteOffset": 0,
            "min": [
                -1.42874145507812,
                0.0,
                1.68580627441406
            ],
            "max": [
                -1.25382232666016,
                0.860399723052979,
                2.54621124267578
            ]
        },
        {
            "componentType": 5126,
            "type": "VEC3",
            "count": 53,
            "bufferView": 14,
            "byteOffset": 0
        },
        {
            "componentType": 5126,
            "type": "VEC2",
            "count": 53,
            "bufferView": 15,
            "byteOffset": 0
        },
        {
            "componentType": 5123,
            "type": "SCALAR",
            "count": 138,
            "bufferView": 16,
            "byteOffset": 0
        },
        {
            "componentType": 5126,
            "type": "VEC3",
            "count": 53,
            "bufferView": 17,
            "byteOffset": 0,
            "min": [
                -1.42874145507812,
                0.0,
                -2.32167816162109
            ],
            "max": [
                -1.25382232666016,
                0.860399723052979,
                -1.46127319335938
            ]
        },
        {
            "componentType": 5126,
            "type": "VEC3",
            "count": 53,
            "bufferView": 18,
            "byteOffset": 0
        },
        {
            "componentType": 5126,
            "type": "VEC2",
            "count": 53,
            "bufferView": 19,
            "byteOffset": 0
        }
    ],
    "images": [
        {
            "name": "icescream_1",
            "uri": "../../textures/STL_Vehicle_HotdogTruck.png"
        }
    ],
    "samplers": [
        {}
    ],
    "textures": [
        {
            "name": "icescream_1",
            "sampler": 0,
            "source": 0
        }
    ],
    "materials": [
        {
            "name": "lambert89",
            "alphaMode": "OPAQUE",
            "pbrMetallicRoughness": {
                "baseColorTexture": {
                    "index": 0,
                    "texCoord": 0
                },
                "baseColorFactor": [
                    0.800000011920929,
                    0.800000011920929,
                    0.800000011920929,
                    1.0
                ],
                "metallicFactor": 0.100000001490116,
                "roughnessFactor": 0.400000005960464
            }
        }
    ],
    "meshes": [
        {
            "name": "hotdog_truck_seperate",
            "primitives": [
                {
                    "material": 0,
                    "mode": 4,
                    "attributes": {
                        "NORMAL": 2,
                        "POSITION": 1,
                        "TEXCOORD_0": 3
                    },
                    "indices": 0
                }
            ]
        },
        {
            "name": "hotdog_fr_wheel",
            "primitives": [
                {
                    "material": 0,
                    "mode": 4,
                    "attributes": {
                        "NORMAL": 6,
                        "POSITION": 5,
                        "TEXCOORD_0": 7
                    },
                    "indices": 4
                }
            ]
        },
        {
            "name": "hotdog_rr_wheel",
            "primitives": [
                {
                    "material": 0,
                    "mode": 4,
                    "attributes": {
                        "NORMAL": 10,
                        "POSITION": 9,
                        "TEXCOORD_0": 11
                    },
                    "indices": 8
                }
            ]
        },
        {
            "name": "hotdog_rl_wheel",
            "primitives": [
                {
                    "material": 0,
                    "mode": 4,
                    "attributes": {
                        "NORMAL": 14,
                        "POSITION": 13,
                        "TEXCOORD_0": 15
                    },
                    "indices": 12
                }
            ]
        },
        {
            "name": "hotdog_fl_wheel",
            "primitives": [
                {
                    "material": 0,
                    "mode": 4,
                    "attributes": {
                        "NORMAL": 18,
                        "POSITION": 17,
                        "TEXCOORD_0": 19
                    },
                    "indices": 16
                }
            ]
        }
    ],
    "nodes": [
        {
            "name": "RootNode",
            "translation": [
                0.0,
                0.0,
                0.0
            ],
            "rotation": [
                0.0,
                0.0,
                0.0,
                1.0
            ],
            "scale": [
                1.0,
                1.0,
                1.0
            ],
            "children": [
                1
            ]
        },
        {
            "name": "hotdog_truck_seperate",
            "translation": [
                0.0,
                0.0,
                0.0
            ],
            "rotation": [
                0.0,
                0.0,
                0.0,
                1.0
            ],
            "scale": [
                0.00999999977648258,
                0.00999999977648258,
                0.00999999977648258
            ],
            "children": [
                2,
                3,
                4,
                5
            ],
            "mesh": 0
        },
        {
            "name": "hotdog_fr_wheel",
            "translation": [
                0.0,
                0.0,
                0.0
            ],
            "rotation": [
                0.0,
                0.0,
                0.0,
                1.0
            ],
            "scale": [
                1.0,
                1.0,
                1.0
            ],
            "mesh": 1
        },
        {
            "name": "hotdog_rr_wheel",
            "translation": [
                0.0,
                0.0,
                0.0
            ],
            "rotation": [
                0.0,
                0.0,
                0.0,
                1.0
            ],
            "scale": [
                1.0,
                1.0,
                1.0
            ],
            "mesh": 2
        },
        {
            "name": "hotdog_rl_wheel",
            "translation": [
                0.0,
                0.0,
                0.0
            ],
            "rotation": [
                0.0,
                0.0,
                0.0,
                1.0
            ],
            "scale": [
                1.0,
                1.0,
                1.0
            ],
            "mesh": 3
        },
        {
            "name": "hotdog_fl_wheel",
            "translation": [
                0.0,
                0.0,
                0.0
            ],
            "rotation": [
                0.0,
                0.0,
                0.0,
                1.0
            ],
            "scale": [
                1.0,
                1.0,
                1.0
            ],
            "mesh": 4
        }
    ]
}