{
    "asset": {
        "generator": "FBX2glTF",
        "version": "2.0"
    },
    "scene": 0,
    "buffers": [
        {
            "byteLength": 7120,
            "uri": "buffer.bin"
        }
    ],
    "bufferViews": [
        {
            "buffer": 0,
            "byteLength": 720,
            "byteOffset": 0,
            "target": 34963
        },
        {
            "buffer": 0,
            "byteLength": 2400,
            "byteOffset": 720,
            "target": 34962
        },
        {
            "buffer": 0,
            "byteLength": 2400,
            "byteOffset": 3120,
            "target": 34962
        },
        {
            "buffer": 0,
            "byteLength": 1600,
            "byteOffset": 5520,
            "target": 34962
        }
    ],
    "scenes": [
        {
            "name": "Root Scene",
            "nodes": [
                0
            ]
        }
    ],
    "accessors": [
        {
            "componentType": 5123,
            "type": "SCALAR",
            "count": 360,
            "bufferView": 0,
            "byteOffset": 0
        },
        {
            "componentType": 5126,
            "type": "VEC3",
            "count": 200,
            "bufferView": 1,
            "byteOffset": 0,
            "min": [
                -2.52529382705688,
                0.0,
                -1.13417434692383
            ],
            "max": [
                2.52529382705688,
                5.06399822235107,
                1.13417434692383
            ]
        },
        {
            "componentType": 5126,
            "type": "VEC3",
            "count": 200,
            "bufferView": 2,
            "byteOffset": 0
        },
        {
            "componentType": 5126,
            "type": "VEC2",
            "count": 200,
            "bufferView": 3,
            "byteOffset": 0
        }
    ],
    "images": [
        {
            "name": "Props_Billboard_1",
            "uri": "../../textures/STL_Props_Billboard_02.png"
        }
    ],
    "samplers": [
        {}
    ],
    "textures": [
        {
            "name": "Props_Billboard_1",
            "sampler": 0,
            "source": 0
        }
    ],
    "materials": [
        {
            "name": "billboard_material",
            "alphaMode": "OPAQUE",
            "pbrMetallicRoughness": {
                "baseColorTexture": {
                    "index": 0,
                    "texCoord": 0
                },
                "baseColorFactor": [
                    0.800000011920929,
                    0.800000011920929,
                    0.800000011920929,
                    1.0
                ],
                "metallicFactor": 0.100000001490116,
                "roughnessFactor": 0.400000005960464
            }
        }
    ],
    "meshes": [
        {
            "name": "billboard_mesh",
            "primitives": [
                {
                    "material": 0,
                    "mode": 4,
                    "attributes": {
                        "NORMAL": 2,
                        "POSITION": 1,
                        "TEXCOORD_0": 3
                    },
                    "indices": 0
                }
            ]
        }
    ],
    "nodes": [
        {
            "name": "RootNode",
            "translation": [
                0.0,
                0.0,
                0.0
            ],
            "rotation": [
                0.0,
                0.0,
                0.0,
                1.0
            ],
            "scale": [
                1.0,
                1.0,
                1.0
            ],
            "children": [
                1
            ]
        },
        {
            "name": "billboard_mesh",
            "translation": [
                0.0,
                0.0,
                0.0
            ],
            "rotation": [
                0.0,
                0.0,
                0.0,
                1.0
            ],
            "scale": [
                0.00999999977648258,
                0.00999999977648258,
                0.00999999977648258
            ],
            "mesh": 0
        }
    ]
}