{
    "asset": {
        "generator": "FBX2glTF",
        "version": "2.0"
    },
    "scene": 0,
    "buffers": [
        {
            "byteLength": 13724,
            "uri": "buffer.bin"
        }
    ],
    "bufferViews": [
        {
            "buffer": 0,
            "byteLength": 1308,
            "byteOffset": 0,
            "target": 34963
        },
        {
            "buffer": 0,
            "byteLength": 4656,
            "byteOffset": 1308,
            "target": 34962
        },
        {
            "buffer": 0,
            "byteLength": 4656,
            "byteOffset": 5964,
            "target": 34962
        },
        {
            "buffer": 0,
            "byteLength": 3104,
            "byteOffset": 10620,
            "target": 34962
        }
    ],
    "scenes": [
        {
            "name": "Root Scene",
            "nodes": [
                0
            ]
        }
    ],
    "accessors": [
        {
            "componentType": 5123,
            "type": "SCALAR",
            "count": 654,
            "bufferView": 0,
            "byteOffset": 0
        },
        {
            "componentType": 5126,
            "type": "VEC3",
            "count": 388,
            "bufferView": 1,
            "byteOffset": 0,
            "min": [
                -5.81597328186035,
                0.0,
                -4.18468856811523
            ],
            "max": [
                5.81597328186035,
                6.65560054779053,
                4.18468856811523
            ]
        },
        {
            "componentType": 5126,
            "type": "VEC3",
            "count": 388,
            "bufferView": 2,
            "byteOffset": 0
        },
        {
            "componentType": 5126,
            "type": "VEC2",
            "count": 388,
            "bufferView": 3,
            "byteOffset": 0
        }
    ],
    "images": [
        {
            "name": "Building02a_1",
            "uri": "../../textures/STL_Shop_Damaged.png"
        }
    ],
    "samplers": [
        {}
    ],
    "textures": [
        {
            "name": "Building02a_1",
            "sampler": 0,
            "source": 0
        }
    ],
    "materials": [
        {
            "name": "store_material",
            "alphaMode": "OPAQUE",
            "pbrMetallicRoughness": {
                "baseColorTexture": {
                    "index": 0,
                    "texCoord": 0
                },
                "baseColorFactor": [
                    0.800000011920929,
                    0.800000011920929,
                    0.800000011920929,
                    1.0
                ],
                "metallicFactor": 0.100000001490116,
                "roughnessFactor": 0.400000005960464
            }
        }
    ],
    "meshes": [
        {
            "name": "store_small_mesh",
            "primitives": [
                {
                    "material": 0,
                    "mode": 4,
                    "attributes": {
                        "NORMAL": 2,
                        "POSITION": 1,
                        "TEXCOORD_0": 3
                    },
                    "indices": 0
                }
            ]
        }
    ],
    "nodes": [
        {
            "name": "RootNode",
            "translation": [
                0.0,
                0.0,
                0.0
            ],
            "rotation": [
                0.0,
                0.0,
                0.0,
                1.0
            ],
            "scale": [
                1.0,
                1.0,
                1.0
            ],
            "children": [
                1
            ]
        },
        {
            "name": "store_small_mesh",
            "translation": [
                0.0,
                0.0,
                0.0
            ],
            "rotation": [
                0.0,
                0.0,
                0.0,
                1.0
            ],
            "scale": [
                0.00999999977648258,
                0.00999999977648258,
                0.00999999977648258
            ],
            "mesh": 0
        }
    ]
}